<?xml version="1.0" encoding="utf-8"?>
<!-- Generator: Adobe Illustrator 27.6.1, SVG Export Plug-In . SVG Version: 6.00 Build 0)  -->
<svg version="1.1" id="レイヤー_1" xmlns="http://www.w3.org/2000/svg" xmlns:xlink="http://www.w3.org/1999/xlink" x="0px"
	 y="0px" viewBox="0 0 1440 320" style="enable-background:new 0 0 1440 320;" xml:space="preserve">
<style type="text/css">
	.st0{fill:#CDDDBD;}
</style>
<path class="st0" d="M0,191.8l40-21.4c40-21.1,120-64.4,200-85.4c80-21.4,160-21.4,240-21.4s160,0,240,12.8s160,38.5,240,47.1
	c80,8.3,160,0.2,240,4.2s160,21.6,200,29.9l40,8.6V320h-40c-40,0-120,0-200,0s-160,0-240,0s-160,0-240,0s-160,0-240,0s-160,0-240,0
	s-160,0-200,0H0V191.8z"/>
</svg>
